<mxfile host="app.diagrams.net" modified="2022-09-09T18:18:59.899Z" agent="5.0 (Windows NT 10.0; Win64; x64) AppleWebKit/537.36 (KHTML, like Gecko) Chrome/105.0.0.0 Safari/537.36" etag="Hrrfz7vTTBo51ZmlKUUV" version="20.2.7" type="github">
  <diagram id="LaU50FEgYTBbN2ljfZ3S" name="Page-1">
    <mxGraphModel dx="948" dy="532" grid="1" gridSize="10" guides="1" tooltips="1" connect="1" arrows="1" fold="1" page="1" pageScale="1" pageWidth="850" pageHeight="1100" math="0" shadow="0">
      <root>
        <mxCell id="0" />
        <mxCell id="1" parent="0" />
        <mxCell id="Fp0RqGOX6O69j0grpJAd-3" value="App.js" style="rounded=0;whiteSpace=wrap;html=1;" parent="1" vertex="1">
          <mxGeometry x="560" y="60" width="120" height="20" as="geometry" />
        </mxCell>
        <mxCell id="Fp0RqGOX6O69j0grpJAd-4" value="index.js" style="rounded=0;whiteSpace=wrap;html=1;" parent="1" vertex="1">
          <mxGeometry x="560" y="10" width="120" height="20" as="geometry" />
        </mxCell>
        <mxCell id="Fp0RqGOX6O69j0grpJAd-7" value="" style="endArrow=classic;startArrow=classic;html=1;rounded=0;entryX=0.503;entryY=1.029;entryDx=0;entryDy=0;entryPerimeter=0;exitX=0.5;exitY=0;exitDx=0;exitDy=0;" parent="1" source="Fp0RqGOX6O69j0grpJAd-3" target="Fp0RqGOX6O69j0grpJAd-4" edge="1">
          <mxGeometry width="50" height="50" relative="1" as="geometry">
            <mxPoint x="615" y="130" as="sourcePoint" />
            <mxPoint x="665" y="80" as="targetPoint" />
          </mxGeometry>
        </mxCell>
        <mxCell id="TSWFRNveR_eCSNxllhdP-13" value="HomePage.js&#xa;( Intro/Tutorial)" style="swimlane;startSize=30;fontStyle=0;" vertex="1" parent="1">
          <mxGeometry x="10" y="10" width="320" height="330" as="geometry">
            <mxRectangle x="10" y="10" width="140" height="30" as="alternateBounds" />
          </mxGeometry>
        </mxCell>
        <mxCell id="TSWFRNveR_eCSNxllhdP-18" value="pcrpaperwork.com" style="rounded=0;whiteSpace=wrap;html=1;align=center;" vertex="1" parent="TSWFRNveR_eCSNxllhdP-13">
          <mxGeometry x="8.5" y="40" width="303" height="30" as="geometry" />
        </mxCell>
        <mxCell id="TSWFRNveR_eCSNxllhdP-20" value="" style="rounded=0;whiteSpace=wrap;html=1;" vertex="1" parent="TSWFRNveR_eCSNxllhdP-13">
          <mxGeometry x="8.5" y="70" width="303" height="230" as="geometry" />
        </mxCell>
        <mxCell id="TSWFRNveR_eCSNxllhdP-36" value="Login" style="rounded=0;whiteSpace=wrap;html=1;fontSize=6;" vertex="1" parent="TSWFRNveR_eCSNxllhdP-13">
          <mxGeometry x="250" y="48.75" width="39" height="12.5" as="geometry" />
        </mxCell>
        <mxCell id="TSWFRNveR_eCSNxllhdP-40" value="" style="shape=image;html=1;verticalAlign=top;verticalLabelPosition=bottom;labelBackgroundColor=#ffffff;imageAspect=0;aspect=fixed;image=https://cdn4.iconfinder.com/data/icons/essential-app-2/16/burger-menu-more-panel-128.png;fontSize=6;" vertex="1" parent="TSWFRNveR_eCSNxllhdP-13">
          <mxGeometry x="30" y="46" width="18" height="18" as="geometry" />
        </mxCell>
        <mxCell id="TSWFRNveR_eCSNxllhdP-41" value="My Labs&lt;br&gt;&lt;br&gt;PCR&lt;br&gt;&lt;br&gt;Inventory&lt;br&gt;&lt;br&gt;Products&lt;br&gt;&lt;br&gt;Promotions&lt;br&gt;&lt;br&gt;Blogs&lt;br&gt;&lt;br&gt;About" style="rounded=0;whiteSpace=wrap;html=1;fontSize=6;align=left;" vertex="1" parent="TSWFRNveR_eCSNxllhdP-13">
          <mxGeometry x="8.5" y="70" width="51.5" height="230" as="geometry" />
        </mxCell>
        <mxCell id="TSWFRNveR_eCSNxllhdP-35" value="&lt;font size=&quot;1&quot;&gt;Introduction&lt;br&gt;and&lt;br&gt;Tutorial&lt;br&gt;&lt;/font&gt;" style="rounded=0;whiteSpace=wrap;html=1;fontSize=5;" vertex="1" parent="TSWFRNveR_eCSNxllhdP-13">
          <mxGeometry x="60" y="70" width="251" height="230" as="geometry" />
        </mxCell>
        <mxCell id="TSWFRNveR_eCSNxllhdP-55" value="Details" style="swimlane;fontStyle=0;childLayout=stackLayout;horizontal=1;startSize=30;horizontalStack=0;resizeParent=1;resizeParentMax=0;resizeLast=0;collapsible=1;marginBottom=0;fontSize=6;fillColor=#f5f5f5;strokeColor=#666666;fontColor=#333333;" vertex="1" parent="TSWFRNveR_eCSNxllhdP-13">
          <mxGeometry x="8.5" y="70" width="140" height="240" as="geometry">
            <mxRectangle x="8.5" y="70" width="51" height="30" as="alternateBounds" />
          </mxGeometry>
        </mxCell>
        <mxCell id="TSWFRNveR_eCSNxllhdP-56" value="My  Labs: " style="text;align=left;verticalAlign=middle;spacingLeft=4;spacingRight=4;overflow=hidden;points=[[0,0.5],[1,0.5]];portConstraint=eastwest;rotatable=0;fontSize=6;horizontal=1;fillColor=default;" vertex="1" parent="TSWFRNveR_eCSNxllhdP-55">
          <mxGeometry y="30" width="140" height="30" as="geometry" />
        </mxCell>
        <mxCell id="TSWFRNveR_eCSNxllhdP-57" value="PCR:" style="text;align=left;verticalAlign=middle;spacingLeft=4;spacingRight=4;overflow=hidden;points=[[0,0.5],[1,0.5]];portConstraint=eastwest;rotatable=0;fontSize=6;fillColor=default;" vertex="1" parent="TSWFRNveR_eCSNxllhdP-55">
          <mxGeometry y="60" width="140" height="30" as="geometry" />
        </mxCell>
        <mxCell id="TSWFRNveR_eCSNxllhdP-58" value="Inventory:" style="text;align=left;verticalAlign=middle;spacingLeft=4;spacingRight=4;overflow=hidden;points=[[0,0.5],[1,0.5]];portConstraint=eastwest;rotatable=0;fontSize=6;fillColor=default;" vertex="1" parent="TSWFRNveR_eCSNxllhdP-55">
          <mxGeometry y="90" width="140" height="30" as="geometry" />
        </mxCell>
        <mxCell id="TSWFRNveR_eCSNxllhdP-61" value="Products:" style="text;align=left;verticalAlign=middle;spacingLeft=4;spacingRight=4;overflow=hidden;points=[[0,0.5],[1,0.5]];portConstraint=eastwest;rotatable=0;fontSize=6;fillColor=default;" vertex="1" parent="TSWFRNveR_eCSNxllhdP-55">
          <mxGeometry y="120" width="140" height="30" as="geometry" />
        </mxCell>
        <mxCell id="TSWFRNveR_eCSNxllhdP-60" value="Promotions:" style="text;align=left;verticalAlign=middle;spacingLeft=4;spacingRight=4;overflow=hidden;points=[[0,0.5],[1,0.5]];portConstraint=eastwest;rotatable=0;fontSize=6;fillColor=default;" vertex="1" parent="TSWFRNveR_eCSNxllhdP-55">
          <mxGeometry y="150" width="140" height="30" as="geometry" />
        </mxCell>
        <mxCell id="TSWFRNveR_eCSNxllhdP-63" value="Blogs:" style="text;align=left;verticalAlign=middle;spacingLeft=4;spacingRight=4;overflow=hidden;points=[[0,0.5],[1,0.5]];portConstraint=eastwest;rotatable=0;fontSize=6;fillColor=default;" vertex="1" parent="TSWFRNveR_eCSNxllhdP-55">
          <mxGeometry y="180" width="140" height="30" as="geometry" />
        </mxCell>
        <mxCell id="TSWFRNveR_eCSNxllhdP-62" value="About:" style="text;align=left;verticalAlign=middle;spacingLeft=4;spacingRight=4;overflow=hidden;points=[[0,0.5],[1,0.5]];portConstraint=eastwest;rotatable=0;fontSize=6;fillColor=default;" vertex="1" parent="TSWFRNveR_eCSNxllhdP-55">
          <mxGeometry y="210" width="140" height="30" as="geometry" />
        </mxCell>
      </root>
    </mxGraphModel>
  </diagram>
</mxfile>
